<mxfile host="Electron" modified="2023-05-18T17:53:44.083Z" agent="Mozilla/5.0 (Windows NT 10.0; Win64; x64) AppleWebKit/537.36 (KHTML, like Gecko) draw.io/21.2.8 Chrome/112.0.5615.165 Electron/24.2.0 Safari/537.36" etag="kRUDtvqhmfvVCvJejLIa" version="21.2.8" type="device">
  <diagram name="Página-1" id="X6QkE8EgPwQf4GEZeboy">
    <mxGraphModel dx="1932" dy="1831" grid="1" gridSize="10" guides="1" tooltips="1" connect="1" arrows="1" fold="1" page="1" pageScale="1" pageWidth="827" pageHeight="1169" math="0" shadow="0">
      <root>
        <mxCell id="0" />
        <mxCell id="1" parent="0" />
        <mxCell id="l3UwjEVA5Tf1UNUXVqA1-14" style="rounded=0;orthogonalLoop=1;jettySize=auto;html=1;entryX=0;entryY=0.5;entryDx=0;entryDy=0;edgeStyle=orthogonalEdgeStyle;endArrow=none;endFill=0;" edge="1" parent="1" source="l3UwjEVA5Tf1UNUXVqA1-1" target="l3UwjEVA5Tf1UNUXVqA1-4">
          <mxGeometry relative="1" as="geometry" />
        </mxCell>
        <mxCell id="l3UwjEVA5Tf1UNUXVqA1-15" style="edgeStyle=orthogonalEdgeStyle;rounded=0;orthogonalLoop=1;jettySize=auto;html=1;entryX=0;entryY=0.5;entryDx=0;entryDy=0;endArrow=none;endFill=0;" edge="1" parent="1" source="l3UwjEVA5Tf1UNUXVqA1-1" target="l3UwjEVA5Tf1UNUXVqA1-10">
          <mxGeometry relative="1" as="geometry" />
        </mxCell>
        <mxCell id="l3UwjEVA5Tf1UNUXVqA1-16" style="edgeStyle=orthogonalEdgeStyle;rounded=0;orthogonalLoop=1;jettySize=auto;html=1;entryX=0;entryY=0.5;entryDx=0;entryDy=0;endArrow=none;endFill=0;" edge="1" parent="1" source="l3UwjEVA5Tf1UNUXVqA1-1" target="l3UwjEVA5Tf1UNUXVqA1-11">
          <mxGeometry relative="1" as="geometry" />
        </mxCell>
        <mxCell id="l3UwjEVA5Tf1UNUXVqA1-17" style="edgeStyle=orthogonalEdgeStyle;rounded=0;orthogonalLoop=1;jettySize=auto;html=1;entryX=0;entryY=0.5;entryDx=0;entryDy=0;endArrow=none;endFill=0;" edge="1" parent="1" source="l3UwjEVA5Tf1UNUXVqA1-1" target="l3UwjEVA5Tf1UNUXVqA1-12">
          <mxGeometry relative="1" as="geometry" />
        </mxCell>
        <mxCell id="l3UwjEVA5Tf1UNUXVqA1-1" value="Administrador" style="shape=umlActor;verticalLabelPosition=bottom;verticalAlign=top;html=1;outlineConnect=0;fillColor=#91DEBF;" vertex="1" parent="1">
          <mxGeometry x="-770" y="190" width="30" height="60" as="geometry" />
        </mxCell>
        <mxCell id="l3UwjEVA5Tf1UNUXVqA1-7" value="BBDD" style="shape=umlActor;verticalLabelPosition=bottom;verticalAlign=top;html=1;outlineConnect=0;fillColor=#FFDF9C;" vertex="1" parent="1">
          <mxGeometry x="50" y="157.5" width="30" height="60" as="geometry" />
        </mxCell>
        <mxCell id="l3UwjEVA5Tf1UNUXVqA1-9" value="Gestión de citas" style="swimlane;whiteSpace=wrap;html=1;fillColor=#91debf;" vertex="1" parent="1">
          <mxGeometry x="-670" y="15" width="380" height="305" as="geometry" />
        </mxCell>
        <mxCell id="l3UwjEVA5Tf1UNUXVqA1-4" value="Nueva Cita" style="ellipse;whiteSpace=wrap;html=1;fillColor=#a7d7ca;" vertex="1" parent="l3UwjEVA5Tf1UNUXVqA1-9">
          <mxGeometry x="40" y="35" width="110" height="55" as="geometry" />
        </mxCell>
        <mxCell id="l3UwjEVA5Tf1UNUXVqA1-20" style="edgeStyle=orthogonalEdgeStyle;rounded=0;orthogonalLoop=1;jettySize=auto;html=1;entryX=0;entryY=0.5;entryDx=0;entryDy=0;dashed=1;" edge="1" parent="l3UwjEVA5Tf1UNUXVqA1-9" source="l3UwjEVA5Tf1UNUXVqA1-10" target="l3UwjEVA5Tf1UNUXVqA1-19">
          <mxGeometry relative="1" as="geometry" />
        </mxCell>
        <mxCell id="l3UwjEVA5Tf1UNUXVqA1-10" value="Editar Cita" style="ellipse;whiteSpace=wrap;html=1;fillColor=#a7d7ca;" vertex="1" parent="l3UwjEVA5Tf1UNUXVqA1-9">
          <mxGeometry x="40" y="105" width="110" height="55" as="geometry" />
        </mxCell>
        <mxCell id="l3UwjEVA5Tf1UNUXVqA1-22" style="edgeStyle=orthogonalEdgeStyle;rounded=0;orthogonalLoop=1;jettySize=auto;html=1;entryX=0;entryY=0.5;entryDx=0;entryDy=0;dashed=1;" edge="1" parent="l3UwjEVA5Tf1UNUXVqA1-9" source="l3UwjEVA5Tf1UNUXVqA1-11" target="l3UwjEVA5Tf1UNUXVqA1-19">
          <mxGeometry relative="1" as="geometry" />
        </mxCell>
        <mxCell id="l3UwjEVA5Tf1UNUXVqA1-11" value="Borrar Cita" style="ellipse;whiteSpace=wrap;html=1;fillColor=#a7d7ca;" vertex="1" parent="l3UwjEVA5Tf1UNUXVqA1-9">
          <mxGeometry x="40" y="175" width="110" height="55" as="geometry" />
        </mxCell>
        <mxCell id="l3UwjEVA5Tf1UNUXVqA1-24" style="edgeStyle=orthogonalEdgeStyle;rounded=0;orthogonalLoop=1;jettySize=auto;html=1;entryX=0.5;entryY=1;entryDx=0;entryDy=0;dashed=1;" edge="1" parent="l3UwjEVA5Tf1UNUXVqA1-9" source="l3UwjEVA5Tf1UNUXVqA1-12" target="l3UwjEVA5Tf1UNUXVqA1-19">
          <mxGeometry relative="1" as="geometry" />
        </mxCell>
        <mxCell id="l3UwjEVA5Tf1UNUXVqA1-12" value="Información Cita" style="ellipse;whiteSpace=wrap;html=1;fillColor=#a7d7ca;" vertex="1" parent="l3UwjEVA5Tf1UNUXVqA1-9">
          <mxGeometry x="40" y="245" width="110" height="55" as="geometry" />
        </mxCell>
        <mxCell id="l3UwjEVA5Tf1UNUXVqA1-19" value="Buscar Cita BBDD" style="ellipse;whiteSpace=wrap;html=1;fillColor=#ffdf9c;" vertex="1" parent="l3UwjEVA5Tf1UNUXVqA1-9">
          <mxGeometry x="240" y="145" width="110" height="55" as="geometry" />
        </mxCell>
        <mxCell id="l3UwjEVA5Tf1UNUXVqA1-21" value="&amp;lt;&amp;lt;include&amp;gt;&amp;gt;" style="text;html=1;align=center;verticalAlign=middle;resizable=0;points=[];autosize=1;strokeColor=none;fillColor=none;" vertex="1" parent="l3UwjEVA5Tf1UNUXVqA1-9">
          <mxGeometry x="145" y="105" width="90" height="30" as="geometry" />
        </mxCell>
        <mxCell id="l3UwjEVA5Tf1UNUXVqA1-23" value="&amp;lt;&amp;lt;include&amp;gt;&amp;gt;" style="text;html=1;align=center;verticalAlign=middle;resizable=0;points=[];autosize=1;strokeColor=none;fillColor=none;" vertex="1" parent="l3UwjEVA5Tf1UNUXVqA1-9">
          <mxGeometry x="145" y="200" width="90" height="30" as="geometry" />
        </mxCell>
        <mxCell id="l3UwjEVA5Tf1UNUXVqA1-25" value="&amp;lt;&amp;lt;include&amp;gt;&amp;gt;" style="text;html=1;align=center;verticalAlign=middle;resizable=0;points=[];autosize=1;strokeColor=none;fillColor=none;" vertex="1" parent="l3UwjEVA5Tf1UNUXVqA1-9">
          <mxGeometry x="145" y="270" width="90" height="30" as="geometry" />
        </mxCell>
        <mxCell id="l3UwjEVA5Tf1UNUXVqA1-37" value="&amp;lt;&amp;lt;include&amp;gt;&amp;gt;" style="text;html=1;align=center;verticalAlign=middle;resizable=0;points=[];autosize=1;strokeColor=none;fillColor=none;" vertex="1" parent="l3UwjEVA5Tf1UNUXVqA1-9">
          <mxGeometry x="300" y="35" width="90" height="30" as="geometry" />
        </mxCell>
        <mxCell id="l3UwjEVA5Tf1UNUXVqA1-27" style="edgeStyle=orthogonalEdgeStyle;rounded=0;orthogonalLoop=1;jettySize=auto;html=1;endArrow=none;endFill=0;entryX=0.5;entryY=0.5;entryDx=0;entryDy=0;entryPerimeter=0;" edge="1" parent="1" source="l3UwjEVA5Tf1UNUXVqA1-19" target="l3UwjEVA5Tf1UNUXVqA1-7">
          <mxGeometry relative="1" as="geometry" />
        </mxCell>
        <mxCell id="l3UwjEVA5Tf1UNUXVqA1-34" style="edgeStyle=orthogonalEdgeStyle;rounded=0;orthogonalLoop=1;jettySize=auto;html=1;entryX=0.5;entryY=0;entryDx=0;entryDy=0;entryPerimeter=0;endArrow=none;endFill=0;" edge="1" parent="1" source="l3UwjEVA5Tf1UNUXVqA1-28" target="l3UwjEVA5Tf1UNUXVqA1-7">
          <mxGeometry relative="1" as="geometry" />
        </mxCell>
        <mxCell id="l3UwjEVA5Tf1UNUXVqA1-28" value="Buscar vehículo" style="ellipse;whiteSpace=wrap;html=1;fillColor=#9fd8e4;" vertex="1" parent="1">
          <mxGeometry x="-220" y="-20" width="110" height="55" as="geometry" />
        </mxCell>
        <mxCell id="l3UwjEVA5Tf1UNUXVqA1-35" style="edgeStyle=orthogonalEdgeStyle;rounded=0;orthogonalLoop=1;jettySize=auto;html=1;entryX=0.5;entryY=0;entryDx=0;entryDy=0;entryPerimeter=0;endArrow=none;endFill=0;" edge="1" parent="1" source="l3UwjEVA5Tf1UNUXVqA1-29" target="l3UwjEVA5Tf1UNUXVqA1-7">
          <mxGeometry relative="1" as="geometry" />
        </mxCell>
        <mxCell id="l3UwjEVA5Tf1UNUXVqA1-29" value="Buscar propietario" style="ellipse;whiteSpace=wrap;html=1;fillColor=#9fd8e4;" vertex="1" parent="1">
          <mxGeometry x="-220" y="50" width="110" height="55" as="geometry" />
        </mxCell>
        <mxCell id="l3UwjEVA5Tf1UNUXVqA1-36" style="edgeStyle=orthogonalEdgeStyle;rounded=0;orthogonalLoop=1;jettySize=auto;html=1;entryX=0.5;entryY=0.5;entryDx=0;entryDy=0;entryPerimeter=0;endArrow=none;endFill=0;" edge="1" parent="1" source="l3UwjEVA5Tf1UNUXVqA1-30" target="l3UwjEVA5Tf1UNUXVqA1-7">
          <mxGeometry relative="1" as="geometry" />
        </mxCell>
        <mxCell id="l3UwjEVA5Tf1UNUXVqA1-45" style="edgeStyle=orthogonalEdgeStyle;rounded=0;orthogonalLoop=1;jettySize=auto;html=1;dashed=1;entryX=0.5;entryY=0;entryDx=0;entryDy=0;" edge="1" parent="1" source="l3UwjEVA5Tf1UNUXVqA1-30" target="l3UwjEVA5Tf1UNUXVqA1-46">
          <mxGeometry relative="1" as="geometry">
            <mxPoint x="-165" y="250" as="targetPoint" />
          </mxGeometry>
        </mxCell>
        <mxCell id="l3UwjEVA5Tf1UNUXVqA1-30" value="Buscar trabajador" style="ellipse;whiteSpace=wrap;html=1;fillColor=#9fd8e4;" vertex="1" parent="1">
          <mxGeometry x="-220" y="115" width="110" height="55" as="geometry" />
        </mxCell>
        <mxCell id="l3UwjEVA5Tf1UNUXVqA1-31" style="edgeStyle=orthogonalEdgeStyle;rounded=0;orthogonalLoop=1;jettySize=auto;html=1;entryX=0;entryY=0.5;entryDx=0;entryDy=0;dashed=1;" edge="1" parent="1" source="l3UwjEVA5Tf1UNUXVqA1-4" target="l3UwjEVA5Tf1UNUXVqA1-28">
          <mxGeometry relative="1" as="geometry">
            <Array as="points">
              <mxPoint x="-280" y="78" />
              <mxPoint x="-280" y="8" />
            </Array>
          </mxGeometry>
        </mxCell>
        <mxCell id="l3UwjEVA5Tf1UNUXVqA1-32" style="edgeStyle=orthogonalEdgeStyle;rounded=0;orthogonalLoop=1;jettySize=auto;html=1;entryX=0;entryY=0.5;entryDx=0;entryDy=0;dashed=1;" edge="1" parent="1" source="l3UwjEVA5Tf1UNUXVqA1-4" target="l3UwjEVA5Tf1UNUXVqA1-29">
          <mxGeometry relative="1" as="geometry" />
        </mxCell>
        <mxCell id="l3UwjEVA5Tf1UNUXVqA1-33" style="edgeStyle=orthogonalEdgeStyle;rounded=0;orthogonalLoop=1;jettySize=auto;html=1;entryX=0;entryY=0.5;entryDx=0;entryDy=0;dashed=1;" edge="1" parent="1" source="l3UwjEVA5Tf1UNUXVqA1-4" target="l3UwjEVA5Tf1UNUXVqA1-30">
          <mxGeometry relative="1" as="geometry">
            <Array as="points">
              <mxPoint x="-280" y="78" />
              <mxPoint x="-280" y="142" />
            </Array>
          </mxGeometry>
        </mxCell>
        <mxCell id="l3UwjEVA5Tf1UNUXVqA1-38" value="Exportar Informe en JSON" style="ellipse;whiteSpace=wrap;html=1;fillColor=#ffa78e;" vertex="1" parent="1">
          <mxGeometry x="-220" y="-100" width="120" height="55" as="geometry" />
        </mxCell>
        <mxCell id="l3UwjEVA5Tf1UNUXVqA1-40" value="&amp;lt;&amp;lt;extends&amp;gt;&amp;gt;" style="text;html=1;align=center;verticalAlign=middle;resizable=0;points=[];autosize=1;strokeColor=none;fillColor=none;" vertex="1" parent="1">
          <mxGeometry x="-340" y="-100" width="90" height="30" as="geometry" />
        </mxCell>
        <mxCell id="l3UwjEVA5Tf1UNUXVqA1-41" value="Exportar Informe en CSV" style="ellipse;whiteSpace=wrap;html=1;fillColor=#ffa78e;" vertex="1" parent="1">
          <mxGeometry x="-220" y="-170" width="120" height="55" as="geometry" />
        </mxCell>
        <mxCell id="l3UwjEVA5Tf1UNUXVqA1-42" style="edgeStyle=orthogonalEdgeStyle;rounded=0;orthogonalLoop=1;jettySize=auto;html=1;entryX=0;entryY=0.5;entryDx=0;entryDy=0;dashed=1;endArrow=none;endFill=0;startArrow=classic;startFill=1;" edge="1" parent="1" source="l3UwjEVA5Tf1UNUXVqA1-4" target="l3UwjEVA5Tf1UNUXVqA1-38">
          <mxGeometry relative="1" as="geometry">
            <Array as="points">
              <mxPoint x="-575" y="-70" />
              <mxPoint x="-370" y="-70" />
              <mxPoint x="-370" y="-72" />
            </Array>
          </mxGeometry>
        </mxCell>
        <mxCell id="l3UwjEVA5Tf1UNUXVqA1-43" style="edgeStyle=orthogonalEdgeStyle;rounded=0;orthogonalLoop=1;jettySize=auto;html=1;entryX=0;entryY=0.5;entryDx=0;entryDy=0;dashed=1;endArrow=none;endFill=0;startArrow=classic;startFill=1;" edge="1" parent="1" source="l3UwjEVA5Tf1UNUXVqA1-4" target="l3UwjEVA5Tf1UNUXVqA1-41">
          <mxGeometry relative="1" as="geometry">
            <Array as="points">
              <mxPoint x="-575" y="-70" />
              <mxPoint x="-370" y="-70" />
              <mxPoint x="-370" y="-142" />
            </Array>
          </mxGeometry>
        </mxCell>
        <mxCell id="l3UwjEVA5Tf1UNUXVqA1-44" value="&amp;lt;&amp;lt;extends&amp;gt;&amp;gt;" style="text;html=1;align=center;verticalAlign=middle;resizable=0;points=[];autosize=1;strokeColor=none;fillColor=none;" vertex="1" parent="1">
          <mxGeometry x="-340" y="-170" width="90" height="30" as="geometry" />
        </mxCell>
        <mxCell id="l3UwjEVA5Tf1UNUXVqA1-46" value="Comprobar si el trabajador esta libre" style="ellipse;whiteSpace=wrap;html=1;fillColor=#9fd8e4;" vertex="1" parent="1">
          <mxGeometry x="-225" y="240" width="120" height="60" as="geometry" />
        </mxCell>
        <mxCell id="l3UwjEVA5Tf1UNUXVqA1-48" value="&amp;lt;&amp;lt;include&amp;gt;&amp;gt;" style="text;html=1;align=center;verticalAlign=middle;resizable=0;points=[];autosize=1;strokeColor=none;fillColor=none;" vertex="1" parent="1">
          <mxGeometry x="-170" y="187.5" width="90" height="30" as="geometry" />
        </mxCell>
      </root>
    </mxGraphModel>
  </diagram>
</mxfile>
